<?xml version="1.0" encoding="UTF-8"?>
<svg xmlns="http://www.w3.org/2000/svg" width="385" height="269" viewBox="0 0 385 269" fill="none">
  <g clip-path="url(#clip0_2980_23556)">
    <path d="M366.053 190.316C357.709 204.611 346.437 216.939 333.014 227.307C327.953 231.229 322.591 234.861 316.957 238.215C316.404 238.551 315.844 238.88 315.284 239.202C306.29 244.434 296.646 248.969 286.513 252.814C285.457 253.221 284.388 253.614 283.319 254.001C282.502 254.298 281.684 254.588 280.86 254.872C280.789 254.898 280.712 254.924 280.635 254.95C277.145 256.163 273.605 257.298 270.019 258.349C268.847 258.698 267.675 259.033 266.491 259.356C264.347 259.956 262.184 260.523 260.008 261.059C258.855 261.349 257.696 261.627 256.538 261.898C247.93 263.91 239.123 265.491 230.187 266.646C133.438 279.161 22.5131 241.725 1.80881 157.092C-4.35871 131.894 6.05139 116.482 20.6011 106.76C27.8373 101.922 36.11 98.49 43.8677 95.9676C44.2025 95.8515 44.5437 95.7418 44.8784 95.6386C44.8913 95.6386 44.9042 95.6386 44.9171 95.6257C51.5674 93.5161 57.7864 92.0582 62.5956 90.9357C62.5956 90.9357 62.8402 90.368 63.3488 89.3293C69.1494 77.4592 109 3.65164 204.886 0.0841577C265.177 -2.16084 268.57 41.8876 292.287 61.3701H292.294C298.584 66.5374 306.303 69.9759 316.893 70.363H316.9C317.331 70.3823 317.775 70.3888 318.213 70.3952H318.219C318.805 70.4017 319.397 70.4017 320.003 70.3952C320.299 70.3952 320.608 70.3823 320.91 70.3694C321.013 70.3694 321.11 70.3694 321.213 70.363C321.213 70.3694 321.226 70.3694 321.232 70.363C321.664 70.3501 322.095 70.3243 322.539 70.2985C322.546 70.3049 322.552 70.2985 322.552 70.2985C322.842 70.2856 323.138 70.2598 323.428 70.2404C324.207 70.1823 325.005 70.1114 325.816 70.0211H325.822C325.893 70.0211 325.964 70.0082 326.035 70.0017C326.672 69.9307 327.297 69.8727 327.921 69.8146H327.928C329.196 69.7114 330.438 69.6469 331.668 69.6082H331.675C338.679 69.4082 345.098 70.3307 350.866 72.2403C387.414 84.2975 397.901 135.745 366.053 190.322V190.316Z" fill="#DAF1FF"></path>
    <path d="M327.066 109.721C323.744 109.721 321.033 112.431 321.033 115.766C321.033 119.101 323.744 121.811 327.066 121.811C330.387 121.811 333.098 119.095 333.098 115.766C333.098 112.437 330.394 109.721 327.066 109.721ZM327.066 119.875C324.806 119.875 322.965 118.03 322.965 115.766C322.965 113.502 324.806 111.657 327.066 111.657C329.325 111.657 331.166 113.502 331.166 115.766C331.166 118.03 329.325 119.875 327.066 119.875Z" fill="white"></path>
    <path d="M354.91 143.564C354.375 143.564 353.944 143.132 353.944 142.596V134.694C353.944 134.158 354.375 133.726 354.91 133.726C355.444 133.726 355.875 134.158 355.875 134.694V142.596C355.875 143.132 355.444 143.564 354.91 143.564Z" fill="white"></path>
    <path d="M358.856 139.61H350.97C350.435 139.61 350.004 139.177 350.004 138.642C350.004 138.107 350.435 137.674 350.97 137.674H358.856C359.39 137.674 359.822 138.107 359.822 138.642C359.822 139.177 359.39 139.61 358.856 139.61Z" fill="white"></path>
    <path d="M67.0126 162.337C65.2744 159.492 61.5533 158.601 58.7142 160.337C56.86 161.479 55.8364 163.466 55.8364 165.504C55.8364 166.582 56.1261 167.665 56.7249 168.652C57.5682 170.026 58.8944 170.994 60.4588 171.368C60.9288 171.484 61.4052 171.536 61.8816 171.536C62.9761 171.536 64.0576 171.233 65.0169 170.646C66.3946 169.801 67.3538 168.472 67.7337 166.904C68.1071 165.336 67.8496 163.711 67.0126 162.337ZM65.8538 166.452C65.5963 167.517 64.9461 168.42 64.0126 168.994C62.0812 170.181 59.5511 169.568 58.373 167.639C57.1948 165.704 57.8 163.175 59.7249 161.988C61.6563 160.808 64.18 161.414 65.3645 163.349C65.9375 164.285 66.1113 165.382 65.8538 166.452Z" fill="white"></path>
    <path d="M28.2629 164.891C27.941 164.891 27.6191 164.73 27.4388 164.427L23.3186 157.685C23.0417 157.227 23.1834 156.634 23.6405 156.356C24.0976 156.079 24.6898 156.221 24.9667 156.679L29.0869 163.42C29.3638 163.879 29.2221 164.472 28.765 164.749C28.6105 164.846 28.4303 164.891 28.2629 164.891Z" fill="white"></path>
    <path d="M22.8355 163.588C22.5136 163.588 22.1917 163.427 22.0114 163.124C21.7346 162.666 21.8762 162.072 22.3333 161.795L29.061 157.666C29.518 157.389 30.1103 157.531 30.3872 157.989C30.664 158.447 30.5224 159.04 30.0653 159.318L23.3377 163.446C23.1831 163.543 23.0029 163.588 22.8355 163.588Z" fill="white"></path>
    <path d="M73.1089 112.927C73.1089 112.927 89.7573 108.618 92.0943 109.624C94.4313 110.637 98.1459 126.236 97.0193 126.623C95.8927 127.01 90.5234 121.636 90.5234 121.636C90.5234 121.636 89.2037 124.294 87.1178 123.41C85.0383 122.526 82.7786 118.836 82.7786 118.836C82.7786 118.836 82.1928 120.643 80.049 119.881C77.9051 119.12 75.0789 114.985 75.0789 114.985L73.1089 112.927Z" fill="white"></path>
    <path d="M31.404 90.5675C31.404 90.5675 22.6742 75.7234 20.3115 74.7815C17.9488 73.8397 4.30683 82.2391 4.83474 83.3099C5.36265 84.3808 12.9465 84.3873 12.9465 84.3873C12.9465 84.3873 12.0066 87.2 14.1053 88.0515C16.2041 88.9031 20.4016 87.8903 20.4016 87.8903C20.4016 87.8903 19.5389 89.5869 21.5926 90.561C23.6463 91.5352 28.5649 90.6191 28.5649 90.6191L31.4104 90.561L31.404 90.5675Z" fill="#DAF1FF"></path>
    <path d="M82.2185 100.664L68.1388 128.926C67.7203 129.765 66.7031 130.107 65.8662 129.687L21.2901 107.392C20.4531 106.973 20.1119 105.953 20.5304 105.115L34.6101 76.8523C34.7067 76.6652 34.8354 76.4975 34.9835 76.362C35.4792 75.8976 36.2325 75.7685 36.8827 76.0911L81.4588 98.3863C82.109 98.7088 82.4567 99.3926 82.3859 100.07C82.3665 100.27 82.315 100.476 82.2185 100.664Z" fill="#FFD100"></path>
    <path d="M22.8545 105.547L49.2049 103.095C50.5375 102.973 51.8251 103.611 52.5333 104.747L66.7546 127.507L53.6857 103.437C52.9775 102.044 51.4453 101.276 49.9066 101.547L22.8545 105.553V105.547Z" fill="#DA9135"></path>
    <path d="M82.3086 100.238L50.0547 105.553L34.9062 76.536C35.4535 75.9747 36.2389 75.7748 36.8891 76.0973L81.4652 98.3925C82.1155 98.7151 82.4245 99.4698 82.3086 100.244V100.238Z" fill="#FFDF4F"></path>
    <path d="M35.8462 78.3296L49.0246 103.457C49.6748 104.702 50.956 105.353 52.3401 105.134L80.1004 100.715L51.8573 107.102C50.2478 107.515 48.7156 106.747 48.0782 105.212L35.8462 78.3296Z" fill="#DA9135"></path>
    <path d="M344.73 60.7764C344.73 60.7764 354.033 46.2871 356.435 45.4356C358.836 44.584 372.137 53.5124 371.564 54.564C370.997 55.6155 363.42 55.3187 363.42 55.3187C363.42 55.3187 364.25 58.1701 362.119 58.9378C359.995 59.7055 355.829 58.5314 355.829 58.5314C355.829 58.5314 356.628 60.2603 354.535 61.157C352.443 62.0537 347.57 60.9441 347.57 60.9441L344.73 60.7764Z" fill="#DAF1FF"></path>
    <path d="M298.964 72.73C298.964 72.73 282.495 67.7691 280.126 68.6851C277.757 69.6012 273.424 85.0452 274.538 85.4775C275.652 85.9097 281.221 80.7488 281.221 80.7488C281.221 80.7488 282.437 83.4518 284.555 82.6519C286.674 81.8519 289.075 78.2522 289.075 78.2522C289.075 78.2522 289.59 80.0843 291.76 79.4069C293.929 78.7296 296.916 74.7105 296.916 74.7105L298.964 72.73Z" fill="white"></path>
    <path d="M343.115 45.5708L351.928 75.8977C352.192 76.8009 351.677 77.7427 350.776 78.0072L302.942 91.9611C302.041 92.2256 301.101 91.703 300.844 90.8063L292.03 60.4794C291.972 60.273 291.953 60.0666 291.972 59.8666C292.024 59.1892 292.487 58.5764 293.182 58.3764L341.016 44.4225C341.711 44.2225 342.432 44.487 342.838 45.0289C342.96 45.1902 343.057 45.3773 343.115 45.5773V45.5708Z" fill="#FFD100"></path>
    <path d="M302.833 89.5418L320.518 69.8142C321.413 68.8143 322.791 68.4078 324.078 68.7627L349.939 75.8009L324.033 67.0209C322.572 66.479 320.924 66.9563 319.977 68.2014L302.827 89.5483L302.833 89.5418Z" fill="#DA9135"></path>
    <path d="M342.89 45.1965L322.81 71.0398L292.024 60.0406C292.043 59.26 292.487 58.5762 293.183 58.3698L341.016 44.4159C341.712 44.216 342.452 44.5514 342.89 45.203V45.1965Z" fill="#FFDF4F"></path>
    <path d="M293.929 60.7183L320.634 70.2015C321.953 70.6789 323.338 70.2789 324.207 69.1758L341.595 47.0483L325.185 70.9498C324.284 72.3497 322.636 72.8271 321.129 72.1304L293.936 60.7183H293.929Z" fill="#DA9135"></path>
    <path d="M121.387 227.802C121.387 227.802 133.509 224.041 135.267 224.706C137.025 225.37 140.308 236.744 139.49 237.066C138.673 237.389 134.527 233.615 134.527 233.615C134.527 233.615 133.645 235.621 132.08 235.04C130.516 234.46 128.72 231.821 128.72 231.821C128.72 231.821 128.353 233.176 126.743 232.686C125.14 232.195 122.906 229.247 122.906 229.247L121.38 227.802H121.387Z" fill="white"></path>
    <path d="M89.8605 212.778C89.8605 212.778 82.9075 202.14 81.1307 201.527C79.3538 200.914 69.5939 207.585 70.0188 208.359C70.4437 209.133 76.0383 208.868 76.0383 208.868C76.0383 208.868 75.446 210.978 77.0168 211.533C78.5941 212.088 81.6521 211.197 81.6521 211.197C81.6521 211.197 81.0727 212.475 82.6243 213.126C84.1758 213.778 87.7617 212.926 87.7617 212.926L89.854 212.784L89.8605 212.778Z" fill="white"></path>
    <path d="M127.677 218.442L118.284 239.769C118.007 240.401 117.267 240.692 116.636 240.408L82.9978 225.532C82.3669 225.254 82.0836 224.512 82.3605 223.88L91.7534 202.553C91.8178 202.411 91.9079 202.282 92.0109 202.178C92.365 201.817 92.9122 201.695 93.4015 201.914L127.04 216.79C127.529 217.003 127.806 217.5 127.78 218.003C127.78 218.151 127.741 218.306 127.677 218.448V218.442Z" fill="#FFD100"></path>
    <path d="M84.0796 224.118L103.419 221.389C104.398 221.254 105.37 221.68 105.93 222.493L117.209 238.775L106.735 221.486C106.168 220.48 105.009 219.97 103.883 220.222L84.0796 224.118Z" fill="#DA9135"></path>
    <path d="M127.729 218.126L104.134 223.17L91.9531 202.307C92.3394 201.875 92.9124 201.701 93.4017 201.914L127.04 216.79C127.529 217.003 127.787 217.552 127.729 218.126Z" fill="#FFDF4F"></path>
    <path d="M92.7061 203.597L103.296 221.66C103.818 222.557 104.784 222.989 105.801 222.783L126.112 218.551L105.517 224.247C104.346 224.609 103.187 224.099 102.666 222.983L92.7061 203.591V203.597Z" fill="#DA9135"></path>
    <path d="M272.967 223.487C272.967 223.487 267.025 221.642 266.169 221.971C265.306 222.293 263.697 227.867 264.102 228.022C264.502 228.177 266.536 226.332 266.536 226.332C266.536 226.332 266.967 227.313 267.733 227.029C268.5 226.745 269.382 225.448 269.382 225.448C269.382 225.448 269.562 226.113 270.347 225.874C271.133 225.635 272.227 224.19 272.227 224.19L272.974 223.481L272.967 223.487Z" fill="white"></path>
    <path d="M288.412 216.126C288.412 216.126 291.818 210.913 292.687 210.617C293.556 210.32 298.339 213.584 298.133 213.965C297.927 214.345 295.185 214.216 295.185 214.216C295.185 214.216 295.475 215.249 294.702 215.52C293.929 215.791 292.429 215.352 292.429 215.352C292.429 215.352 292.713 215.978 291.953 216.294C291.193 216.61 289.436 216.197 289.436 216.197L288.412 216.126Z" fill="white"></path>
    <path d="M269.89 218.9L274.493 229.351C274.628 229.66 274.989 229.802 275.304 229.667L291.786 222.377C292.095 222.241 292.236 221.88 292.101 221.564L287.498 211.113C287.466 211.042 287.421 210.978 287.369 210.926C287.195 210.752 286.925 210.687 286.687 210.797L270.206 218.087C269.967 218.19 269.826 218.435 269.839 218.68C269.839 218.751 269.858 218.829 269.89 218.9Z" fill="#FFD100"></path>
    <path d="M291.245 221.681L281.768 220.345C281.292 220.281 280.815 220.487 280.538 220.887L275.015 228.861L280.146 220.39C280.422 219.9 280.989 219.648 281.543 219.771L291.245 221.681Z" fill="#DA9135"></path>
    <path d="M269.864 218.745L281.42 221.216L287.388 210.997C287.202 210.784 286.918 210.701 286.68 210.804L270.199 218.094C269.961 218.197 269.832 218.468 269.864 218.745Z" fill="#FFDF4F"></path>
    <path d="M287.015 211.629L281.826 220.48C281.569 220.919 281.099 221.131 280.596 221.028L270.65 218.957L280.738 221.751C281.311 221.931 281.878 221.68 282.135 221.131L287.015 211.635V211.629Z" fill="#DA9135"></path>
    <path d="M108.331 82.8648L182.952 27.3849C186.004 25.1141 190.176 25.1335 193.214 27.4236L266.71 82.8648H108.331Z" fill="#FFD100"></path>
    <path d="M263.986 82.1421H111.054C108.181 82.1421 105.852 84.4758 105.852 87.3546V184.322C105.852 187.201 108.181 189.534 111.054 189.534H263.986C266.859 189.534 269.188 187.201 269.188 184.322V87.3546C269.188 84.4758 266.859 82.1421 263.986 82.1421Z" fill="#FFD100"></path>
    <path d="M261.811 89.2451L244.647 102.56L244.422 102.734L230.497 113.534L220.441 121.333L199.498 137.577L195.468 140.706L193.228 139.338C189.725 137.19 185.315 137.209 181.826 139.377L179.599 140.764L176.071 138.042L154.407 121.333L144.293 113.534L130.297 102.734L127.735 100.76L112.805 89.2451H261.811Z" fill="white"></path>
    <path d="M263.427 182.309L195.468 140.706L193.228 139.338C189.725 137.19 185.315 137.209 181.826 139.377L179.599 140.764L112.805 182.309L176.071 138.042L181.633 134.152C185.476 131.281 190.749 131.281 194.599 134.152L199.498 137.577L263.427 182.309Z" fill="#DA9135"></path>
    <path d="M261.811 40.6289H112.805V89.2512H261.811V40.6289Z" fill="white"></path>
    <path d="M244.647 57.7505H127.734V65.5499H244.647V57.7505Z" fill="#DAF1FF"></path>
    <path d="M244.647 76.3428H127.734V84.1422H244.647V76.3428Z" fill="#DAF1FF"></path>
    <path d="M244.647 94.9414V102.56L244.422 102.734H130.297L127.734 100.76V94.9414H244.647Z" fill="#DAF1FF"></path>
    <path d="M230.497 113.534L220.441 121.333H154.407L144.293 113.534H230.497Z" fill="#DAF1FF"></path>
  </g>
  <defs>
    <clipPath id="clip0_2980_23556">
      <rect width="385" height="269" fill="white"></rect>
    </clipPath>
  </defs>
</svg>
